<svg xmlns="http://www.w3.org/2000/svg" xmlns:xlink="http://www.w3.org/1999/xlink" width="2000" zoomAndPan="magnify" viewBox="0 0 1500 1499.999933" height="2000" preserveAspectRatio="xMidYMid meet" version="1.0"><defs><filter x="0%" y="0%" width="100%" height="100%" id="45d78fd297"><feColorMatrix values="0 0 0 0 1 0 0 0 0 1 0 0 0 0 1 0 0 0 1 0" color-interpolation-filters="sRGB"/></filter><mask id="acfcff50b1"><g filter="url(#45d78fd297)"><rect x="-150" width="1800" fill="#000000" y="-149.999993" height="1799.99992" fill-opacity="0.12"/></g></mask><clipPath id="c8055b38c8"><rect x="0" width="20" y="0" height="570"/></clipPath><mask id="b714461e70"><g filter="url(#45d78fd297)"><rect x="-150" width="1800" fill="#000000" y="-149.999993" height="1799.99992" fill-opacity="0.12"/></g></mask><clipPath id="015d04d06c"><path d="M 0.640625 0.761719 L 496.238281 0.761719 L 496.238281 294.761719 L 0.640625 294.761719 Z M 0.640625 0.761719 " clip-rule="nonzero"/></clipPath><clipPath id="6394fea555"><rect x="0" width="497" y="0" height="295"/></clipPath><mask id="d335bba11e"><g filter="url(#45d78fd297)"><rect x="-150" width="1800" fill="#000000" y="-149.999993" height="1799.99992" fill-opacity="0.12"/></g></mask><clipPath id="a16cc40277"><path d="M 0.640625 0.0390625 L 496.238281 0.0390625 L 496.238281 294.039062 L 0.640625 294.039062 Z M 0.640625 0.0390625 " clip-rule="nonzero"/></clipPath><clipPath id="01896c7847"><rect x="0" width="497" y="0" height="295"/></clipPath><mask id="8de3817d40"><g filter="url(#45d78fd297)"><rect x="-150" width="1800" fill="#000000" y="-149.999993" height="1799.99992" fill-opacity="0.12"/></g></mask><clipPath id="add44192d6"><rect x="0" width="20" y="0" height="570"/></clipPath><mask id="a13a1b35f8"><g filter="url(#45d78fd297)"><rect x="-150" width="1800" fill="#000000" y="-149.999993" height="1799.99992" fill-opacity="0.12"/></g></mask><clipPath id="f571a5a6de"><path d="M 0.28125 0.0390625 L 496.121094 0.0390625 L 496.121094 294.039062 L 0.28125 294.039062 Z M 0.28125 0.0390625 " clip-rule="nonzero"/></clipPath><clipPath id="f3aa93bc85"><rect x="0" width="497" y="0" height="295"/></clipPath><mask id="60e258141d"><g filter="url(#45d78fd297)"><rect x="-150" width="1800" fill="#000000" y="-149.999993" height="1799.99992" fill-opacity="0.12"/></g></mask><clipPath id="d55b3b1d31"><path d="M 0.28125 0.761719 L 496.121094 0.761719 L 496.121094 294.761719 L 0.28125 294.761719 Z M 0.28125 0.761719 " clip-rule="nonzero"/></clipPath><clipPath id="4c17f6ef29"><rect x="0" width="497" y="0" height="295"/></clipPath></defs><rect x="-150" width="1800" fill="#ffffff" y="-149.999993" height="1799.99992" fill-opacity="1"/><path stroke-linecap="butt" transform="matrix(9.176249, 0, 0, 9.176249, -167.791095, -0.00002)" fill-opacity="1" fill="#f8f8f8" fill-rule="nonzero" stroke-linejoin="miter" d="M 99.999804 22.000157 L 152.000132 51.999904 L 152.000132 111.999825 L 99.999804 141.999997 L 47.999902 111.999825 L 47.999902 51.999904 Z M 99.999804 22.000157 " stroke="#0a0a0a" stroke-width="3" stroke-opacity="1" stroke-miterlimit="4"/><g mask="url(#acfcff50b1)"><g transform="matrix(1, 0, 0, 1, 740, 192)"><g clip-path="url(#c8055b38c8)"><path stroke-linecap="butt" transform="matrix(9.176249, 0, 0, 9.176249, -907.791128, -192.00002)" fill="none" stroke-linejoin="miter" d="M 99.999808 82.000077 L 99.999808 22.000157 " stroke="#0a0a0a" stroke-width="0.6" stroke-opacity="1" stroke-miterlimit="4"/></g></g></g><g mask="url(#b714461e70)"><g transform="matrix(1, 0, 0, 1, 740, 467)"><g clip-path="url(#6394fea555)"><path fill="#000000" d="M 9.832031 285.453125 L 487 10.164062 " fill-opacity="1" fill-rule="nonzero"/><g clip-path="url(#015d04d06c)"><path stroke-linecap="butt" transform="matrix(9.176249, 0, 0, 9.176249, -907.791128, -467.00002)" fill="none" stroke-linejoin="miter" d="M 99.999808 82.000077 L 152.000136 51.999904 " stroke="#0a0a0a" stroke-width="0.6" stroke-opacity="1" stroke-miterlimit="4"/></g></g></g></g><g mask="url(#d335bba11e)"><g transform="matrix(1, 0, 0, 1, 740, 743)"><g clip-path="url(#01896c7847)"><path fill="#000000" d="M 9.832031 9.453125 L 487 284.738281 " fill-opacity="1" fill-rule="nonzero"/><g clip-path="url(#a16cc40277)"><path stroke-linecap="butt" transform="matrix(9.176249, 0, 0, 9.176249, -907.791128, -743.00002)" fill="none" stroke-linejoin="miter" d="M 99.999808 82.000077 L 152.000136 111.999825 " stroke="#0a0a0a" stroke-width="0.6" stroke-opacity="1" stroke-miterlimit="4"/></g></g></g></g><g mask="url(#8de3817d40)"><g transform="matrix(1, 0, 0, 1, 740, 743)"><g clip-path="url(#add44192d6)"><path stroke-linecap="butt" transform="matrix(9.176249, 0, 0, 9.176249, -907.791128, -743.00002)" fill="none" stroke-linejoin="miter" d="M 99.999808 82.000077 L 99.999808 141.999997 " stroke="#0a0a0a" stroke-width="0.6" stroke-opacity="1" stroke-miterlimit="4"/></g></g></g><g mask="url(#a13a1b35f8)"><g transform="matrix(1, 0, 0, 1, 263, 743)"><g clip-path="url(#f3aa93bc85)"><path fill="#000000" d="M 486.832031 9.453125 L 9.667969 284.738281 " fill-opacity="1" fill-rule="nonzero"/><g clip-path="url(#f571a5a6de)"><path stroke-linecap="butt" transform="matrix(9.176249, 0, 0, 9.176249, -430.791104, -743.00002)" fill="none" stroke-linejoin="miter" d="M 99.999805 82.000077 L 47.999903 111.999825 " stroke="#0a0a0a" stroke-width="0.6" stroke-opacity="1" stroke-miterlimit="4"/></g></g></g></g><g mask="url(#60e258141d)"><g transform="matrix(1, 0, 0, 1, 263, 467)"><g clip-path="url(#4c17f6ef29)"><path fill="#000000" d="M 486.832031 285.453125 L 9.667969 10.164062 " fill-opacity="1" fill-rule="nonzero"/><g clip-path="url(#d55b3b1d31)"><path stroke-linecap="butt" transform="matrix(9.176249, 0, 0, 9.176249, -430.791104, -467.00002)" fill="none" stroke-linejoin="miter" d="M 99.999805 82.000077 L 47.999903 51.999904 " stroke="#0a0a0a" stroke-width="0.6" stroke-opacity="1" stroke-miterlimit="4"/></g></g></g></g><path stroke-linecap="butt" transform="matrix(9.176249, 0, 0, 9.176249, -167.791095, -0.00002)" fill-opacity="1" fill="#ffffff" fill-rule="nonzero" stroke-linejoin="miter" d="M 57.999818 82.000077 C 86.000093 57.333392 113.999942 57.333392 141.999791 82.000077 C 113.999942 106.666763 86.000093 106.666763 57.999818 82.000077 Z M 57.999818 82.000077 " stroke="#0a0a0a" stroke-width="1.8" stroke-opacity="1" stroke-miterlimit="4"/><path fill="#0a0a0a" d="M 970.0625 752.453125 C 970.0625 756.054688 969.976562 759.660156 969.796875 763.257812 C 969.621094 766.859375 969.355469 770.453125 969.003906 774.039062 C 968.648438 777.625 968.207031 781.203125 967.679688 784.765625 C 967.152344 788.332031 966.535156 791.882812 965.832031 795.417969 C 965.128906 798.953125 964.339844 802.46875 963.464844 805.964844 C 962.589844 809.460938 961.628906 812.933594 960.582031 816.382812 C 959.535156 819.832031 958.402344 823.253906 957.191406 826.644531 C 955.976562 830.039062 954.679688 833.402344 953.300781 836.730469 C 951.921875 840.058594 950.460938 843.355469 948.917969 846.613281 C 947.378906 849.871094 945.757812 853.089844 944.058594 856.269531 C 942.359375 859.445312 940.585938 862.582031 938.730469 865.671875 C 936.878906 868.765625 934.949219 871.808594 932.949219 874.804688 C 930.945312 877.800781 928.871094 880.75 926.722656 883.644531 C 924.578125 886.539062 922.359375 889.378906 920.074219 892.164062 C 917.789062 894.949219 915.433594 897.679688 913.011719 900.351562 C 910.59375 903.019531 908.109375 905.628906 905.558594 908.179688 C 903.011719 910.726562 900.402344 913.210938 897.730469 915.632812 C 895.058594 918.050781 892.332031 920.40625 889.546875 922.691406 C 886.761719 924.980469 883.917969 927.195312 881.023438 929.34375 C 878.128906 931.488281 875.183594 933.5625 872.1875 935.566406 C 869.191406 937.570312 866.144531 939.496094 863.054688 941.351562 C 859.964844 943.203125 856.828125 944.980469 853.648438 946.679688 C 850.472656 948.375 847.253906 949.996094 843.992188 951.539062 C 840.734375 953.078125 837.441406 954.539062 834.113281 955.917969 C 830.78125 957.296875 827.421875 958.59375 824.027344 959.808594 C 820.632812 961.023438 817.210938 962.152344 813.761719 963.199219 C 810.3125 964.246094 806.839844 965.207031 803.34375 966.082031 C 799.847656 966.957031 796.332031 967.746094 792.796875 968.449219 C 789.261719 969.152344 785.714844 969.769531 782.148438 970.296875 C 778.582031 970.828125 775.007812 971.269531 771.421875 971.621094 C 767.832031 971.976562 764.238281 972.238281 760.640625 972.417969 C 757.039062 972.59375 753.4375 972.683594 749.832031 972.683594 C 746.230469 972.683594 742.628906 972.59375 739.027344 972.417969 C 735.429688 972.238281 731.835938 971.976562 728.246094 971.621094 C 724.660156 971.269531 721.085938 970.828125 717.519531 970.296875 C 713.953125 969.769531 710.402344 969.152344 706.867188 968.449219 C 703.335938 967.746094 699.820312 966.957031 696.324219 966.082031 C 692.824219 965.207031 689.351562 964.246094 685.90625 963.199219 C 682.457031 962.152344 679.035156 961.023438 675.640625 959.808594 C 672.246094 958.59375 668.886719 957.296875 665.554688 955.917969 C 662.226562 954.539062 658.929688 953.078125 655.671875 951.539062 C 652.414062 949.996094 649.195312 948.375 646.019531 946.675781 C 642.839844 944.980469 639.703125 943.203125 636.613281 941.351562 C 633.519531 939.496094 630.476562 937.570312 627.480469 935.566406 C 624.484375 933.5625 621.539062 931.488281 618.644531 929.34375 C 615.746094 927.195312 612.90625 924.980469 610.121094 922.691406 C 607.335938 920.40625 604.605469 918.050781 601.9375 915.632812 C 599.265625 913.210938 596.65625 910.726562 594.109375 908.179688 C 591.558594 905.628906 589.074219 903.019531 586.652344 900.351562 C 584.234375 897.679688 581.878906 894.949219 579.59375 892.164062 C 577.308594 889.378906 575.089844 886.539062 572.941406 883.644531 C 570.796875 880.75 568.722656 877.800781 566.71875 874.804688 C 564.71875 871.808594 562.789062 868.765625 560.9375 865.671875 C 559.082031 862.582031 557.308594 859.445312 555.609375 856.269531 C 553.910156 853.089844 552.289062 849.871094 550.75 846.613281 C 549.207031 843.355469 547.746094 840.058594 546.367188 836.730469 C 544.988281 833.402344 543.691406 830.039062 542.476562 826.644531 C 541.261719 823.253906 540.132812 819.832031 539.085938 816.382812 C 538.039062 812.933594 537.078125 809.460938 536.203125 805.964844 C 535.328125 802.46875 534.539062 798.953125 533.835938 795.417969 C 533.132812 791.882812 532.515625 788.332031 531.988281 784.765625 C 531.457031 781.203125 531.019531 777.625 530.664062 774.039062 C 530.3125 770.453125 530.046875 766.859375 529.867188 763.257812 C 529.691406 759.660156 529.605469 756.054688 529.605469 752.453125 C 529.605469 748.847656 529.691406 745.246094 529.867188 741.644531 C 530.046875 738.046875 530.3125 734.453125 530.664062 730.867188 C 531.019531 727.277344 531.457031 723.703125 531.988281 720.136719 C 532.515625 716.574219 533.132812 713.023438 533.835938 709.488281 C 534.539062 705.953125 535.328125 702.4375 536.203125 698.941406 C 537.078125 695.445312 538.039062 691.972656 539.085938 688.523438 C 540.132812 685.074219 541.261719 681.652344 542.476562 678.257812 C 543.691406 674.867188 544.988281 671.503906 546.367188 668.175781 C 547.746094 664.84375 549.207031 661.550781 550.75 658.292969 C 552.289062 655.035156 553.910156 651.816406 555.609375 648.636719 C 557.308594 645.457031 559.082031 642.324219 560.9375 639.230469 C 562.789062 636.140625 564.71875 633.097656 566.71875 630.097656 C 568.722656 627.101562 570.796875 624.15625 572.941406 621.261719 C 575.089844 618.367188 577.308594 615.527344 579.59375 612.738281 C 581.878906 609.953125 584.234375 607.226562 586.652344 604.554688 C 589.074219 601.882812 591.558594 599.273438 594.109375 596.726562 C 596.65625 594.175781 599.265625 591.691406 601.9375 589.273438 C 604.605469 586.851562 607.335938 584.5 610.121094 582.210938 C 612.90625 579.925781 615.746094 577.710938 618.644531 575.5625 C 621.539062 573.414062 624.484375 571.339844 627.480469 569.335938 C 630.476562 567.335938 633.519531 565.40625 636.613281 563.554688 C 639.703125 561.703125 642.839844 559.925781 646.019531 558.226562 C 649.195312 556.527344 652.414062 554.90625 655.671875 553.367188 C 658.929688 551.824219 662.226562 550.367188 665.554688 548.988281 C 668.886719 547.605469 672.246094 546.308594 675.640625 545.097656 C 679.035156 543.882812 682.457031 542.75 685.90625 541.707031 C 689.351562 540.660156 692.824219 539.699219 696.320312 538.824219 C 699.820312 537.945312 703.332031 537.15625 706.867188 536.453125 C 710.402344 535.75 713.953125 535.136719 717.519531 534.605469 C 721.085938 534.078125 724.660156 533.636719 728.246094 533.28125 C 731.835938 532.929688 735.429688 532.664062 739.027344 532.488281 C 742.628906 532.3125 746.230469 532.222656 749.832031 532.222656 C 753.4375 532.222656 757.039062 532.3125 760.640625 532.488281 C 764.238281 532.664062 767.832031 532.929688 771.421875 533.28125 C 775.007812 533.636719 778.582031 534.078125 782.148438 534.605469 C 785.714844 535.136719 789.261719 535.75 792.796875 536.453125 C 796.332031 537.15625 799.847656 537.945312 803.34375 538.824219 C 806.839844 539.699219 810.3125 540.660156 813.761719 541.707031 C 817.210938 542.75 820.632812 543.882812 824.027344 545.097656 C 827.421875 546.308594 830.78125 547.605469 834.113281 548.988281 C 837.441406 550.367188 840.734375 551.824219 843.992188 553.367188 C 847.253906 554.90625 850.472656 556.527344 853.648438 558.226562 C 856.828125 559.925781 859.964844 561.703125 863.054688 563.554688 C 866.144531 565.40625 869.191406 567.335938 872.1875 569.335938 C 875.183594 571.339844 878.128906 573.414062 881.023438 575.5625 C 883.917969 577.710938 886.761719 579.925781 889.546875 582.210938 C 892.332031 584.5 895.058594 586.851562 897.730469 589.273438 C 900.402344 591.691406 903.011719 594.175781 905.558594 596.726562 C 908.109375 599.273438 910.59375 601.882812 913.011719 604.554688 C 915.433594 607.226562 917.789062 609.953125 920.074219 612.738281 C 922.359375 615.527344 924.578125 618.367188 926.722656 621.261719 C 928.871094 624.15625 930.945312 627.101562 932.949219 630.097656 C 934.949219 633.097656 936.878906 636.140625 938.730469 639.230469 C 940.585938 642.324219 942.359375 645.457031 944.058594 648.636719 C 945.757812 651.816406 947.378906 655.035156 948.917969 658.292969 C 950.460938 661.550781 951.921875 664.84375 953.300781 668.175781 C 954.679688 671.503906 955.976562 674.867188 957.191406 678.257812 C 958.402344 681.652344 959.535156 685.074219 960.582031 688.523438 C 961.628906 691.972656 962.589844 695.445312 963.464844 698.941406 C 964.339844 702.4375 965.128906 705.953125 965.832031 709.488281 C 966.535156 713.023438 967.152344 716.574219 967.679688 720.136719 C 968.207031 723.703125 968.648438 727.277344 969.003906 730.867188 C 969.355469 734.453125 969.621094 738.046875 969.796875 741.644531 C 969.976562 745.246094 970.0625 748.847656 970.0625 752.453125 Z M 970.0625 752.453125 " fill-opacity="1" fill-rule="nonzero"/><path fill="#f97316" d="M 915.007812 752.453125 C 915.007812 755.15625 914.941406 757.855469 914.808594 760.558594 C 914.675781 763.257812 914.476562 765.953125 914.210938 768.640625 C 913.945312 771.332031 913.613281 774.015625 913.21875 776.6875 C 912.820312 779.363281 912.359375 782.023438 911.832031 784.675781 C 911.304688 787.328125 910.714844 789.964844 910.054688 792.585938 C 909.398438 795.207031 908.679688 797.8125 907.894531 800.398438 C 907.109375 802.984375 906.261719 805.550781 905.351562 808.097656 C 904.441406 810.640625 903.46875 813.164062 902.433594 815.660156 C 901.398438 818.160156 900.304688 820.628906 899.148438 823.074219 C 897.992188 825.515625 896.777344 827.929688 895.503906 830.3125 C 894.230469 832.699219 892.898438 835.050781 891.507812 837.367188 C 890.117188 839.6875 888.671875 841.96875 887.167969 844.21875 C 885.667969 846.464844 884.113281 848.675781 882.5 850.84375 C 880.890625 853.015625 879.230469 855.148438 877.515625 857.238281 C 875.800781 859.328125 874.035156 861.371094 872.21875 863.375 C 870.402344 865.378906 868.539062 867.335938 866.628906 869.246094 C 864.71875 871.160156 862.757812 873.023438 860.757812 874.835938 C 858.753906 876.652344 856.707031 878.417969 854.617188 880.132812 C 852.527344 881.847656 850.398438 883.507812 848.226562 885.121094 C 846.054688 886.730469 843.847656 888.285156 841.597656 889.789062 C 839.351562 891.289062 837.066406 892.734375 834.75 894.125 C 832.429688 895.515625 830.078125 896.847656 827.695312 898.121094 C 825.3125 899.394531 822.898438 900.609375 820.453125 901.765625 C 818.011719 902.921875 815.539062 904.015625 813.042969 905.050781 C 810.546875 906.085938 808.023438 907.058594 805.480469 907.96875 C 802.933594 908.878906 800.367188 909.726562 797.78125 910.511719 C 795.195312 911.296875 792.589844 912.019531 789.96875 912.675781 C 787.34375 913.332031 784.707031 913.921875 782.058594 914.449219 C 779.40625 914.976562 776.742188 915.441406 774.070312 915.835938 C 771.394531 916.234375 768.714844 916.566406 766.023438 916.828125 C 763.332031 917.09375 760.636719 917.292969 757.9375 917.425781 C 755.238281 917.558594 752.535156 917.625 749.832031 917.625 C 747.128906 917.625 744.429688 917.558594 741.730469 917.425781 C 739.027344 917.292969 736.335938 917.09375 733.644531 916.828125 C 730.953125 916.566406 728.273438 916.234375 725.597656 915.835938 C 722.925781 915.441406 720.261719 914.976562 717.609375 914.449219 C 714.957031 913.921875 712.320312 913.332031 709.699219 912.675781 C 707.078125 912.019531 704.472656 911.296875 701.886719 910.511719 C 699.300781 909.726562 696.734375 908.878906 694.1875 907.96875 C 691.644531 907.058594 689.121094 906.085938 686.625 905.050781 C 684.128906 904.015625 681.65625 902.921875 679.214844 901.765625 C 676.769531 900.609375 674.355469 899.394531 671.972656 898.121094 C 669.589844 896.847656 667.238281 895.515625 664.917969 894.125 C 662.597656 892.734375 660.316406 891.289062 658.070312 889.789062 C 655.820312 888.285156 653.613281 886.730469 651.441406 885.121094 C 649.269531 883.507812 647.140625 881.847656 645.050781 880.132812 C 642.960938 878.417969 640.914062 876.652344 638.910156 874.835938 C 636.90625 873.023438 634.949219 871.160156 633.039062 869.246094 C 631.128906 867.335938 629.265625 865.378906 627.449219 863.375 C 625.632812 861.371094 623.867188 859.328125 622.152344 857.238281 C 620.4375 855.148438 618.777344 853.015625 617.164062 850.84375 C 615.554688 848.675781 614 846.464844 612.496094 844.21875 C 610.996094 841.96875 609.550781 839.6875 608.160156 837.367188 C 606.769531 835.050781 605.4375 832.699219 604.164062 830.3125 C 602.890625 827.929688 601.675781 825.515625 600.519531 823.074219 C 599.363281 820.628906 598.269531 818.160156 597.234375 815.660156 C 596.199219 813.164062 595.226562 810.640625 594.316406 808.097656 C 593.40625 805.550781 592.558594 802.984375 591.773438 800.398438 C 590.988281 797.8125 590.269531 795.207031 589.609375 792.585938 C 588.953125 789.964844 588.363281 787.328125 587.835938 784.675781 C 587.308594 782.023438 586.84375 779.363281 586.449219 776.6875 C 586.050781 774.015625 585.722656 771.332031 585.457031 768.640625 C 585.191406 765.953125 584.992188 763.257812 584.859375 760.558594 C 584.726562 757.855469 584.660156 755.15625 584.660156 752.453125 C 584.660156 749.75 584.726562 747.046875 584.859375 744.347656 C 584.992188 741.648438 585.191406 738.953125 585.457031 736.261719 C 585.722656 733.574219 586.050781 730.890625 586.449219 728.214844 C 586.84375 725.542969 587.308594 722.878906 587.835938 720.230469 C 588.363281 717.578125 588.953125 714.941406 589.609375 712.320312 C 590.269531 709.695312 590.988281 707.09375 591.773438 704.503906 C 592.558594 701.917969 593.40625 699.351562 594.316406 696.808594 C 595.226562 694.261719 596.199219 691.742188 597.234375 689.242188 C 598.269531 686.746094 599.363281 684.277344 600.519531 681.832031 C 601.675781 679.386719 602.890625 676.976562 604.164062 674.589844 C 605.4375 672.207031 606.769531 669.855469 608.160156 667.535156 C 609.550781 665.21875 610.996094 662.933594 612.496094 660.6875 C 614 658.441406 615.554688 656.230469 617.164062 654.058594 C 618.777344 651.886719 620.4375 649.757812 622.152344 647.667969 C 623.867188 645.578125 625.632812 643.53125 627.449219 641.53125 C 629.265625 639.527344 631.128906 637.570312 633.039062 635.65625 C 634.949219 633.746094 636.90625 631.882812 638.910156 630.066406 C 640.914062 628.253906 642.960938 626.488281 645.050781 624.773438 C 647.140625 623.058594 649.269531 621.394531 651.441406 619.785156 C 653.613281 618.175781 655.820312 616.617188 658.070312 615.117188 C 660.316406 613.613281 662.597656 612.167969 664.917969 610.777344 C 667.238281 609.390625 669.589844 608.058594 671.972656 606.785156 C 674.355469 605.507812 676.769531 604.292969 679.214844 603.136719 C 681.65625 601.980469 684.128906 600.886719 686.625 599.851562 C 689.121094 598.820312 691.644531 597.847656 694.1875 596.933594 C 696.734375 596.023438 699.300781 595.175781 701.886719 594.390625 C 704.472656 593.609375 707.078125 592.886719 709.699219 592.230469 C 712.320312 591.574219 714.957031 590.980469 717.609375 590.453125 C 720.261719 589.925781 722.925781 589.464844 725.597656 589.066406 C 728.273438 588.671875 730.953125 588.339844 733.644531 588.074219 C 736.335938 587.808594 739.027344 587.613281 741.730469 587.480469 C 744.429688 587.347656 747.128906 587.28125 749.832031 587.28125 C 752.535156 587.28125 755.238281 587.347656 757.9375 587.480469 C 760.636719 587.613281 763.332031 587.808594 766.023438 588.074219 C 768.714844 588.339844 771.394531 588.671875 774.070312 589.066406 C 776.742188 589.464844 779.40625 589.925781 782.058594 590.453125 C 784.707031 590.980469 787.34375 591.574219 789.96875 592.230469 C 792.589844 592.886719 795.195312 593.609375 797.78125 594.390625 C 800.367188 595.175781 802.933594 596.023438 805.480469 596.933594 C 808.023438 597.847656 810.546875 598.820312 813.042969 599.851562 C 815.539062 600.886719 818.011719 601.980469 820.453125 603.136719 C 822.898438 604.292969 825.3125 605.507812 827.695312 606.785156 C 830.078125 608.058594 832.429688 609.390625 834.75 610.777344 C 837.066406 612.167969 839.351562 613.613281 841.597656 615.117188 C 843.847656 616.617188 846.054688 618.175781 848.226562 619.785156 C 850.398438 621.394531 852.527344 623.058594 854.617188 624.773438 C 856.707031 626.488281 858.753906 628.253906 860.757812 630.066406 C 862.757812 631.882812 864.71875 633.746094 866.628906 635.65625 C 868.539062 637.570312 870.402344 639.527344 872.21875 641.53125 C 874.035156 643.53125 875.800781 645.578125 877.515625 647.667969 C 879.230469 649.757812 880.890625 651.886719 882.5 654.058594 C 884.113281 656.230469 885.667969 658.441406 887.167969 660.6875 C 888.671875 662.933594 890.117188 665.21875 891.507812 667.535156 C 892.898438 669.855469 894.230469 672.207031 895.503906 674.589844 C 896.777344 676.976562 897.992188 679.386719 899.148438 681.832031 C 900.304688 684.277344 901.398438 686.746094 902.433594 689.242188 C 903.46875 691.742188 904.441406 694.261719 905.351562 696.808594 C 906.261719 699.351562 907.109375 701.917969 907.894531 704.503906 C 908.679688 707.09375 909.398438 709.695312 910.054688 712.320312 C 910.714844 714.941406 911.304688 717.578125 911.832031 720.230469 C 912.359375 722.878906 912.820312 725.542969 913.21875 728.214844 C 913.613281 730.890625 913.945312 733.574219 914.210938 736.261719 C 914.476562 738.953125 914.675781 741.648438 914.808594 744.347656 C 914.941406 747.046875 915.007812 749.75 915.007812 752.453125 Z M 915.007812 752.453125 " fill-opacity="1" fill-rule="nonzero"/><path fill="#0a0a0a" d="M 832.421875 752.453125 C 832.421875 753.804688 832.386719 755.15625 832.320312 756.503906 C 832.253906 757.855469 832.15625 759.203125 832.023438 760.546875 C 831.890625 761.890625 831.722656 763.234375 831.527344 764.570312 C 831.328125 765.90625 831.097656 767.238281 830.832031 768.5625 C 830.570312 769.890625 830.273438 771.207031 829.945312 772.519531 C 829.617188 773.832031 829.257812 775.132812 828.863281 776.425781 C 828.472656 777.71875 828.046875 779.003906 827.59375 780.273438 C 827.136719 781.546875 826.652344 782.808594 826.132812 784.058594 C 825.617188 785.304688 825.070312 786.539062 824.492188 787.761719 C 823.914062 788.984375 823.304688 790.191406 822.667969 791.382812 C 822.03125 792.574219 821.363281 793.75 820.671875 794.910156 C 819.976562 796.070312 819.253906 797.210938 818.5 798.335938 C 817.75 799.457031 816.972656 800.5625 816.167969 801.648438 C 815.363281 802.734375 814.53125 803.800781 813.675781 804.84375 C 812.816406 805.890625 811.933594 806.914062 811.027344 807.914062 C 810.117188 808.914062 809.1875 809.894531 808.230469 810.851562 C 807.277344 811.804688 806.296875 812.738281 805.296875 813.644531 C 804.292969 814.550781 803.269531 815.433594 802.226562 816.292969 C 801.179688 817.148438 800.117188 817.980469 799.03125 818.785156 C 797.945312 819.589844 796.839844 820.371094 795.714844 821.121094 C 794.59375 821.871094 793.449219 822.59375 792.292969 823.289062 C 791.132812 823.984375 789.957031 824.648438 788.765625 825.285156 C 787.574219 825.925781 786.367188 826.53125 785.144531 827.109375 C 783.921875 827.6875 782.6875 828.234375 781.4375 828.753906 C 780.1875 829.269531 778.929688 829.753906 777.65625 830.210938 C 776.382812 830.667969 775.101562 831.089844 773.808594 831.484375 C 772.515625 831.875 771.210938 832.234375 769.902344 832.5625 C 768.589844 832.890625 767.269531 833.1875 765.945312 833.453125 C 764.621094 833.714844 763.289062 833.945312 761.953125 834.144531 C 760.613281 834.34375 759.273438 834.507812 757.929688 834.640625 C 756.582031 834.773438 755.234375 834.871094 753.886719 834.9375 C 752.535156 835.003906 751.183594 835.039062 749.832031 835.039062 C 748.480469 835.039062 747.132812 835.003906 745.78125 834.9375 C 744.429688 834.871094 743.085938 834.773438 741.738281 834.640625 C 740.394531 834.507812 739.054688 834.34375 737.714844 834.144531 C 736.378906 833.945312 735.046875 833.714844 733.722656 833.453125 C 732.394531 833.1875 731.078125 832.890625 729.765625 832.5625 C 728.457031 832.234375 727.152344 831.875 725.859375 831.484375 C 724.566406 831.089844 723.285156 830.667969 722.011719 830.210938 C 720.738281 829.753906 719.476562 829.269531 718.230469 828.753906 C 716.980469 828.234375 715.746094 827.6875 714.523438 827.109375 C 713.300781 826.53125 712.09375 825.925781 710.902344 825.285156 C 709.710938 824.648438 708.535156 823.984375 707.375 823.289062 C 706.214844 822.59375 705.074219 821.871094 703.953125 821.121094 C 702.828125 820.371094 701.722656 819.589844 700.636719 818.785156 C 699.550781 817.980469 698.488281 817.148438 697.441406 816.292969 C 696.398438 815.433594 695.375 814.550781 694.371094 813.644531 C 693.371094 812.738281 692.390625 811.804688 691.4375 810.851562 C 690.480469 809.894531 689.550781 808.914062 688.640625 807.914062 C 687.734375 806.914062 686.851562 805.890625 685.992188 804.84375 C 685.136719 803.800781 684.304688 802.734375 683.5 801.648438 C 682.695312 800.5625 681.917969 799.457031 681.164062 798.335938 C 680.414062 797.210938 679.691406 796.070312 678.996094 794.910156 C 678.300781 793.75 677.636719 792.574219 677 791.382812 C 676.363281 790.191406 675.753906 788.984375 675.175781 787.761719 C 674.597656 786.539062 674.050781 785.304688 673.535156 784.058594 C 673.015625 782.808594 672.53125 781.546875 672.074219 780.273438 C 671.621094 779.003906 671.195312 777.71875 670.804688 776.425781 C 670.410156 775.132812 670.050781 773.832031 669.722656 772.519531 C 669.394531 771.207031 669.097656 769.890625 668.835938 768.5625 C 668.570312 767.238281 668.339844 765.90625 668.140625 764.570312 C 667.941406 763.234375 667.777344 761.890625 667.644531 760.546875 C 667.511719 759.203125 667.414062 757.855469 667.347656 756.503906 C 667.28125 755.15625 667.246094 753.804688 667.246094 752.453125 C 667.246094 751.101562 667.28125 749.75 667.347656 748.398438 C 667.414062 747.050781 667.511719 745.703125 667.644531 744.359375 C 667.777344 743.011719 667.941406 741.671875 668.140625 740.335938 C 668.339844 738.996094 668.570312 737.667969 668.835938 736.339844 C 669.097656 735.015625 669.394531 733.695312 669.722656 732.386719 C 670.050781 731.074219 670.410156 729.773438 670.804688 728.480469 C 671.195312 727.183594 671.621094 725.902344 672.074219 724.628906 C 672.53125 723.355469 673.015625 722.097656 673.535156 720.847656 C 674.050781 719.597656 674.597656 718.363281 675.175781 717.140625 C 675.753906 715.921875 676.363281 714.714844 677 713.519531 C 677.636719 712.328125 678.300781 711.152344 678.996094 709.996094 C 679.691406 708.835938 680.414062 707.695312 681.164062 706.570312 C 681.917969 705.445312 682.695312 704.339844 683.5 703.253906 C 684.304688 702.171875 685.136719 701.105469 685.992188 700.058594 C 686.851562 699.015625 687.734375 697.992188 688.640625 696.992188 C 689.550781 695.988281 690.480469 695.011719 691.4375 694.054688 C 692.390625 693.097656 693.371094 692.167969 694.371094 691.261719 C 695.375 690.351562 696.398438 689.46875 697.441406 688.613281 C 698.488281 687.753906 699.550781 686.921875 700.636719 686.117188 C 701.722656 685.3125 702.828125 684.535156 703.953125 683.785156 C 705.074219 683.035156 706.214844 682.3125 707.375 681.617188 C 708.535156 680.921875 709.710938 680.253906 710.902344 679.617188 C 712.09375 678.980469 713.300781 678.375 714.523438 677.796875 C 715.746094 677.21875 716.980469 676.667969 718.230469 676.152344 C 719.476562 675.636719 720.738281 675.148438 722.011719 674.695312 C 723.285156 674.238281 724.566406 673.816406 725.859375 673.421875 C 727.152344 673.03125 728.457031 672.667969 729.765625 672.339844 C 731.078125 672.011719 732.394531 671.714844 733.722656 671.453125 C 735.046875 671.1875 736.378906 670.957031 737.714844 670.761719 C 739.054688 670.5625 740.394531 670.394531 741.738281 670.265625 C 743.085938 670.132812 744.429688 670.03125 745.78125 669.964844 C 747.132812 669.898438 748.480469 669.867188 749.832031 669.867188 C 751.183594 669.867188 752.535156 669.898438 753.886719 669.964844 C 755.234375 670.03125 756.582031 670.132812 757.929688 670.265625 C 759.273438 670.394531 760.613281 670.5625 761.953125 670.761719 C 763.289062 670.957031 764.621094 671.1875 765.945312 671.453125 C 767.269531 671.714844 768.589844 672.011719 769.902344 672.339844 C 771.210938 672.667969 772.515625 673.03125 773.808594 673.421875 C 775.101562 673.816406 776.382812 674.238281 777.65625 674.695312 C 778.929688 675.148438 780.1875 675.636719 781.4375 676.152344 C 782.6875 676.667969 783.921875 677.21875 785.144531 677.796875 C 786.367188 678.375 787.574219 678.980469 788.765625 679.617188 C 789.957031 680.253906 791.132812 680.921875 792.292969 681.617188 C 793.449219 682.308594 794.59375 683.035156 795.714844 683.785156 C 796.839844 684.535156 797.945312 685.3125 799.03125 686.117188 C 800.117188 686.921875 801.179688 687.753906 802.226562 688.613281 C 803.269531 689.46875 804.292969 690.351562 805.296875 691.261719 C 806.296875 692.167969 807.277344 693.097656 808.230469 694.054688 C 809.1875 695.011719 810.117188 695.988281 811.027344 696.992188 C 811.933594 697.992188 812.816406 699.015625 813.675781 700.058594 C 814.53125 701.105469 815.363281 702.171875 816.167969 703.253906 C 816.972656 704.339844 817.75 705.445312 818.5 706.570312 C 819.253906 707.695312 819.976562 708.835938 820.671875 709.996094 C 821.363281 711.152344 822.03125 712.328125 822.667969 713.519531 C 823.304688 714.714844 823.914062 715.921875 824.492188 717.140625 C 825.070312 718.363281 825.617188 719.597656 826.132812 720.847656 C 826.652344 722.097656 827.136719 723.355469 827.59375 724.628906 C 828.046875 725.902344 828.472656 727.183594 828.863281 728.480469 C 829.257812 729.773438 829.617188 731.074219 829.945312 732.386719 C 830.273438 733.695312 830.570312 735.015625 830.832031 736.339844 C 831.097656 737.667969 831.328125 738.996094 831.527344 740.335938 C 831.722656 741.671875 831.890625 743.011719 832.023438 744.359375 C 832.15625 745.703125 832.253906 747.050781 832.320312 748.398438 C 832.386719 749.75 832.421875 751.101562 832.421875 752.453125 Z M 832.421875 752.453125 " fill-opacity="1" fill-rule="nonzero"/><path fill="#ffffff" d="M 850.773438 688.21875 C 850.773438 689.421875 850.714844 690.621094 850.597656 691.816406 C 850.476562 693.011719 850.300781 694.199219 850.066406 695.378906 C 849.832031 696.558594 849.542969 697.722656 849.191406 698.875 C 848.84375 700.023438 848.4375 701.15625 847.976562 702.265625 C 847.519531 703.375 847.003906 704.460938 846.4375 705.519531 C 845.871094 706.582031 845.253906 707.609375 844.585938 708.609375 C 843.917969 709.609375 843.203125 710.574219 842.441406 711.503906 C 841.679688 712.433594 840.871094 713.324219 840.023438 714.171875 C 839.171875 715.023438 838.28125 715.828125 837.351562 716.59375 C 836.421875 717.355469 835.460938 718.070312 834.460938 718.738281 C 833.460938 719.40625 832.429688 720.023438 831.371094 720.589844 C 830.308594 721.15625 829.222656 721.667969 828.113281 722.128906 C 827.003906 722.589844 825.871094 722.996094 824.722656 723.34375 C 823.570312 723.691406 822.40625 723.984375 821.226562 724.21875 C 820.050781 724.453125 818.863281 724.628906 817.664062 724.746094 C 816.46875 724.863281 815.269531 724.921875 814.066406 724.921875 C 812.867188 724.921875 811.667969 724.863281 810.46875 724.746094 C 809.273438 724.628906 808.085938 724.453125 806.90625 724.21875 C 805.726562 723.984375 804.5625 723.691406 803.414062 723.34375 C 802.261719 722.996094 801.132812 722.589844 800.019531 722.128906 C 798.910156 721.667969 797.824219 721.15625 796.765625 720.589844 C 795.703125 720.023438 794.675781 719.40625 793.675781 718.738281 C 792.675781 718.070312 791.710938 717.355469 790.78125 716.59375 C 789.851562 715.828125 788.964844 715.023438 788.113281 714.171875 C 787.261719 713.324219 786.457031 712.433594 785.695312 711.503906 C 784.929688 710.574219 784.214844 709.609375 783.546875 708.609375 C 782.878906 707.609375 782.261719 706.582031 781.695312 705.519531 C 781.128906 704.460938 780.617188 703.375 780.15625 702.265625 C 779.695312 701.15625 779.292969 700.023438 778.941406 698.875 C 778.59375 697.722656 778.300781 696.558594 778.066406 695.378906 C 777.832031 694.199219 777.65625 693.011719 777.539062 691.816406 C 777.421875 690.621094 777.363281 689.421875 777.363281 688.21875 C 777.363281 687.015625 777.421875 685.816406 777.539062 684.621094 C 777.65625 683.425781 777.832031 682.238281 778.066406 681.058594 C 778.300781 679.878906 778.59375 678.714844 778.941406 677.5625 C 779.292969 676.414062 779.695312 675.28125 780.15625 674.171875 C 780.617188 673.0625 781.128906 671.976562 781.695312 670.917969 C 782.261719 669.855469 782.878906 668.824219 783.546875 667.828125 C 784.214844 666.828125 784.929688 665.863281 785.695312 664.933594 C 786.457031 664.003906 787.261719 663.113281 788.113281 662.265625 C 788.964844 661.414062 789.851562 660.609375 790.78125 659.84375 C 791.710938 659.082031 792.675781 658.367188 793.675781 657.699219 C 794.675781 657.03125 795.703125 656.414062 796.765625 655.847656 C 797.824219 655.28125 798.910156 654.769531 800.019531 654.308594 C 801.132812 653.847656 802.261719 653.441406 803.414062 653.09375 C 804.5625 652.746094 805.726562 652.453125 806.90625 652.21875 C 808.085938 651.984375 809.273438 651.808594 810.46875 651.691406 C 811.667969 651.574219 812.867188 651.515625 814.066406 651.515625 C 815.269531 651.515625 816.46875 651.574219 817.664062 651.691406 C 818.863281 651.808594 820.050781 651.984375 821.226562 652.21875 C 822.40625 652.453125 823.570312 652.746094 824.722656 653.09375 C 825.871094 653.441406 827.003906 653.847656 828.113281 654.308594 C 829.222656 654.769531 830.308594 655.28125 831.371094 655.847656 C 832.429688 656.414062 833.460938 657.03125 834.460938 657.699219 C 835.460938 658.367188 836.421875 659.082031 837.351562 659.84375 C 838.28125 660.609375 839.171875 661.414062 840.023438 662.265625 C 840.871094 663.113281 841.679688 664.003906 842.441406 664.933594 C 843.203125 665.863281 843.917969 666.828125 844.585938 667.828125 C 845.253906 668.824219 845.871094 669.855469 846.4375 670.917969 C 847.003906 671.976562 847.519531 673.0625 847.976562 674.171875 C 848.4375 675.28125 848.84375 676.414062 849.191406 677.5625 C 849.542969 678.714844 849.832031 679.878906 850.066406 681.058594 C 850.300781 682.238281 850.476562 683.425781 850.597656 684.621094 C 850.714844 685.816406 850.773438 687.015625 850.773438 688.21875 Z M 850.773438 688.21875 " fill-opacity="0.85" fill-rule="nonzero"/><path fill="#ffffff" d="M 713.128906 798.332031 C 713.128906 798.933594 713.097656 799.535156 713.039062 800.132812 C 712.980469 800.730469 712.894531 801.324219 712.777344 801.914062 C 712.660156 802.503906 712.511719 803.085938 712.339844 803.660156 C 712.164062 804.234375 711.960938 804.800781 711.730469 805.355469 C 711.5 805.910156 711.246094 806.453125 710.960938 806.984375 C 710.679688 807.515625 710.371094 808.03125 710.035156 808.53125 C 709.703125 809.03125 709.34375 809.511719 708.964844 809.976562 C 708.582031 810.441406 708.179688 810.886719 707.753906 811.3125 C 707.328125 811.734375 706.882812 812.140625 706.417969 812.519531 C 705.953125 812.902344 705.472656 813.257812 704.972656 813.59375 C 704.472656 813.925781 703.957031 814.234375 703.425781 814.519531 C 702.898438 814.800781 702.355469 815.058594 701.800781 815.289062 C 701.242188 815.519531 700.679688 815.722656 700.105469 815.894531 C 699.527344 816.070312 698.945312 816.214844 698.355469 816.332031 C 697.765625 816.449219 697.171875 816.539062 696.574219 816.597656 C 695.976562 816.65625 695.378906 816.6875 694.777344 816.6875 C 694.175781 816.6875 693.574219 816.65625 692.976562 816.597656 C 692.378906 816.539062 691.785156 816.449219 691.195312 816.332031 C 690.605469 816.214844 690.023438 816.070312 689.449219 815.894531 C 688.875 815.722656 688.308594 815.519531 687.753906 815.289062 C 687.199219 815.058594 686.65625 814.800781 686.125 814.519531 C 685.59375 814.234375 685.078125 813.925781 684.582031 813.59375 C 684.082031 813.257812 683.597656 812.902344 683.132812 812.519531 C 682.667969 812.140625 682.222656 811.734375 681.800781 811.3125 C 681.375 810.886719 680.972656 810.441406 680.589844 809.976562 C 680.207031 809.511719 679.851562 809.03125 679.515625 808.53125 C 679.183594 808.03125 678.875 807.515625 678.589844 806.984375 C 678.308594 806.453125 678.050781 805.910156 677.820312 805.355469 C 677.589844 804.800781 677.386719 804.234375 677.214844 803.660156 C 677.039062 803.085938 676.894531 802.503906 676.777344 801.914062 C 676.660156 801.324219 676.570312 800.730469 676.511719 800.132812 C 676.453125 799.535156 676.425781 798.933594 676.425781 798.332031 C 676.425781 797.734375 676.453125 797.132812 676.511719 796.535156 C 676.570312 795.9375 676.660156 795.34375 676.777344 794.753906 C 676.894531 794.164062 677.039062 793.582031 677.214844 793.007812 C 677.386719 792.429688 677.589844 791.867188 677.820312 791.308594 C 678.050781 790.753906 678.308594 790.210938 678.589844 789.683594 C 678.875 789.152344 679.183594 788.636719 679.515625 788.136719 C 679.851562 787.636719 680.207031 787.15625 680.589844 786.691406 C 680.972656 786.226562 681.375 785.78125 681.800781 785.355469 C 682.222656 784.929688 682.667969 784.527344 683.132812 784.148438 C 683.597656 783.765625 684.082031 783.40625 684.582031 783.074219 C 685.078125 782.738281 685.59375 782.429688 686.125 782.148438 C 686.65625 781.863281 687.199219 781.609375 687.753906 781.378906 C 688.308594 781.148438 688.875 780.945312 689.449219 780.769531 C 690.023438 780.597656 690.605469 780.449219 691.195312 780.332031 C 691.785156 780.214844 692.378906 780.128906 692.976562 780.070312 C 693.574219 780.011719 694.175781 779.980469 694.777344 779.980469 C 695.378906 779.980469 695.976562 780.011719 696.574219 780.070312 C 697.171875 780.128906 697.765625 780.214844 698.355469 780.332031 C 698.945312 780.449219 699.527344 780.597656 700.105469 780.769531 C 700.679688 780.945312 701.246094 781.148438 701.800781 781.378906 C 702.355469 781.609375 702.898438 781.863281 703.425781 782.148438 C 703.957031 782.429688 704.472656 782.738281 704.972656 783.074219 C 705.472656 783.40625 705.953125 783.765625 706.417969 784.148438 C 706.882812 784.527344 707.328125 784.929688 707.753906 785.355469 C 708.179688 785.78125 708.582031 786.226562 708.964844 786.691406 C 709.34375 787.15625 709.703125 787.636719 710.035156 788.136719 C 710.371094 788.636719 710.679688 789.152344 710.960938 789.683594 C 711.246094 790.210938 711.5 790.753906 711.730469 791.308594 C 711.960938 791.867188 712.164062 792.429688 712.339844 793.007812 C 712.511719 793.582031 712.660156 794.164062 712.777344 794.753906 C 712.894531 795.34375 712.980469 795.9375 713.039062 796.535156 C 713.097656 797.132812 713.128906 797.734375 713.128906 798.332031 Z M 713.128906 798.332031 " fill-opacity="0.3" fill-rule="nonzero"/><path fill="#f97316" d="M 786.539062 201.878906 C 786.539062 203.078125 786.480469 204.277344 786.363281 205.476562 C 786.246094 206.671875 786.066406 207.859375 785.832031 209.039062 C 785.597656 210.21875 785.308594 211.382812 784.957031 212.53125 C 784.609375 213.683594 784.203125 214.8125 783.746094 215.921875 C 783.285156 217.035156 782.769531 218.121094 782.203125 219.179688 C 781.636719 220.242188 781.019531 221.269531 780.351562 222.269531 C 779.683594 223.269531 778.96875 224.234375 778.207031 225.164062 C 777.445312 226.09375 776.636719 226.980469 775.789062 227.832031 C 774.9375 228.683594 774.046875 229.488281 773.121094 230.25 C 772.191406 231.011719 771.226562 231.730469 770.226562 232.398438 C 769.226562 233.0625 768.195312 233.683594 767.136719 234.25 C 766.074219 234.816406 764.992188 235.328125 763.878906 235.789062 C 762.769531 236.25 761.640625 236.652344 760.488281 237 C 759.339844 237.351562 758.171875 237.644531 756.996094 237.878906 C 755.816406 238.113281 754.628906 238.289062 753.429688 238.40625 C 752.234375 238.523438 751.035156 238.582031 749.832031 238.582031 C 748.632812 238.582031 747.433594 238.523438 746.234375 238.40625 C 745.039062 238.289062 743.851562 238.113281 742.671875 237.878906 C 741.492188 237.644531 740.328125 237.351562 739.179688 237 C 738.027344 236.652344 736.898438 236.25 735.789062 235.789062 C 734.675781 235.328125 733.589844 234.816406 732.53125 234.25 C 731.472656 233.683594 730.441406 233.0625 729.441406 232.398438 C 728.441406 231.730469 727.476562 231.011719 726.546875 230.25 C 725.617188 229.488281 724.730469 228.683594 723.878906 227.832031 C 723.03125 226.980469 722.222656 226.09375 721.460938 225.164062 C 720.699219 224.234375 719.984375 223.269531 719.316406 222.269531 C 718.648438 221.269531 718.03125 220.242188 717.460938 219.179688 C 716.894531 218.121094 716.382812 217.035156 715.921875 215.921875 C 715.460938 214.8125 715.058594 213.683594 714.710938 212.53125 C 714.359375 211.382812 714.070312 210.21875 713.832031 209.039062 C 713.597656 207.859375 713.421875 206.671875 713.304688 205.476562 C 713.1875 204.277344 713.128906 203.078125 713.128906 201.878906 C 713.128906 200.675781 713.1875 199.476562 713.304688 198.28125 C 713.421875 197.082031 713.597656 195.894531 713.832031 194.714844 C 714.070312 193.539062 714.359375 192.371094 714.710938 191.222656 C 715.058594 190.070312 715.460938 188.941406 715.921875 187.832031 C 716.382812 186.71875 716.894531 185.636719 717.460938 184.574219 C 718.03125 183.515625 718.648438 182.484375 719.316406 181.484375 C 719.984375 180.484375 720.699219 179.519531 721.460938 178.59375 C 722.222656 177.664062 723.03125 176.773438 723.878906 175.921875 C 724.730469 175.074219 725.617188 174.265625 726.546875 173.503906 C 727.476562 172.742188 728.441406 172.027344 729.441406 171.359375 C 730.441406 170.691406 731.472656 170.074219 732.53125 169.507812 C 733.589844 168.941406 734.675781 168.425781 735.789062 167.964844 C 736.898438 167.507812 738.027344 167.101562 739.179688 166.753906 C 740.328125 166.402344 741.492188 166.113281 742.671875 165.878906 C 743.851562 165.644531 745.039062 165.46875 746.234375 165.347656 C 747.433594 165.230469 748.632812 165.171875 749.832031 165.171875 C 751.035156 165.171875 752.234375 165.230469 753.429688 165.347656 C 754.628906 165.46875 755.816406 165.644531 756.996094 165.878906 C 758.171875 166.113281 759.339844 166.402344 760.488281 166.753906 C 761.640625 167.101562 762.769531 167.507812 763.878906 167.964844 C 764.992188 168.425781 766.078125 168.941406 767.136719 169.507812 C 768.195312 170.074219 769.226562 170.691406 770.226562 171.359375 C 771.226562 172.027344 772.191406 172.742188 773.121094 173.503906 C 774.046875 174.265625 774.9375 175.074219 775.789062 175.921875 C 776.636719 176.773438 777.445312 177.664062 778.207031 178.59375 C 778.96875 179.519531 779.683594 180.484375 780.351562 181.484375 C 781.019531 182.484375 781.636719 183.515625 782.203125 184.574219 C 782.769531 185.636719 783.285156 186.71875 783.746094 187.832031 C 784.203125 188.941406 784.609375 190.070312 784.957031 191.222656 C 785.308594 192.371094 785.597656 193.539062 785.832031 194.714844 C 786.066406 195.894531 786.246094 197.082031 786.363281 198.28125 C 786.480469 199.476562 786.539062 200.675781 786.539062 201.878906 Z M 786.539062 201.878906 " fill-opacity="1" fill-rule="nonzero"/><path fill="#f97316" d="M 786.539062 1303.027344 C 786.539062 1304.230469 786.480469 1305.429688 786.363281 1306.625 C 786.246094 1307.820312 786.066406 1309.007812 785.832031 1310.1875 C 785.597656 1311.367188 785.308594 1312.53125 784.957031 1313.683594 C 784.609375 1314.832031 784.203125 1315.964844 783.746094 1317.074219 C 783.285156 1318.183594 782.769531 1319.269531 782.203125 1320.328125 C 781.636719 1321.390625 781.019531 1322.417969 780.351562 1323.417969 C 779.683594 1324.417969 778.96875 1325.382812 778.207031 1326.3125 C 777.445312 1327.242188 776.636719 1328.132812 775.789062 1328.980469 C 774.9375 1329.832031 774.046875 1330.636719 773.121094 1331.402344 C 772.191406 1332.164062 771.226562 1332.878906 770.226562 1333.546875 C 769.226562 1334.214844 768.195312 1334.832031 767.136719 1335.398438 C 766.074219 1335.964844 764.992188 1336.476562 763.878906 1336.9375 C 762.769531 1337.398438 761.640625 1337.804688 760.488281 1338.152344 C 759.339844 1338.5 758.171875 1338.792969 756.996094 1339.027344 C 755.816406 1339.261719 754.628906 1339.4375 753.429688 1339.554688 C 752.234375 1339.671875 751.035156 1339.730469 749.832031 1339.730469 C 748.632812 1339.730469 747.433594 1339.671875 746.234375 1339.554688 C 745.039062 1339.4375 743.851562 1339.261719 742.671875 1339.027344 C 741.492188 1338.792969 740.328125 1338.5 739.179688 1338.152344 C 738.027344 1337.804688 736.898438 1337.398438 735.789062 1336.9375 C 734.675781 1336.476562 733.589844 1335.964844 732.53125 1335.398438 C 731.472656 1334.832031 730.441406 1334.214844 729.441406 1333.546875 C 728.441406 1332.878906 727.476562 1332.164062 726.546875 1331.402344 C 725.617188 1330.636719 724.730469 1329.832031 723.878906 1328.980469 C 723.03125 1328.132812 722.222656 1327.242188 721.460938 1326.3125 C 720.699219 1325.382812 719.984375 1324.417969 719.316406 1323.417969 C 718.648438 1322.417969 718.03125 1321.390625 717.460938 1320.328125 C 716.894531 1319.269531 716.382812 1318.183594 715.921875 1317.074219 C 715.460938 1315.964844 715.058594 1314.832031 714.710938 1313.683594 C 714.359375 1312.53125 714.070312 1311.367188 713.832031 1310.1875 C 713.597656 1309.007812 713.421875 1307.820312 713.304688 1306.625 C 713.1875 1305.429688 713.128906 1304.230469 713.128906 1303.027344 C 713.128906 1301.824219 713.1875 1300.625 713.304688 1299.429688 C 713.421875 1298.234375 713.597656 1297.046875 713.832031 1295.867188 C 714.070312 1294.6875 714.359375 1293.523438 714.710938 1292.371094 C 715.058594 1291.222656 715.460938 1290.089844 715.921875 1288.980469 C 716.382812 1287.871094 716.894531 1286.785156 717.460938 1285.726562 C 718.03125 1284.664062 718.648438 1283.632812 719.316406 1282.636719 C 719.984375 1281.636719 720.699219 1280.671875 721.460938 1279.742188 C 722.222656 1278.8125 723.03125 1277.921875 723.878906 1277.074219 C 724.730469 1276.222656 725.617188 1275.417969 726.546875 1274.652344 C 727.476562 1273.890625 728.441406 1273.175781 729.441406 1272.507812 C 730.441406 1271.839844 731.472656 1271.222656 732.53125 1270.65625 C 733.589844 1270.089844 734.675781 1269.578125 735.789062 1269.117188 C 736.898438 1268.65625 738.027344 1268.25 739.179688 1267.902344 C 740.328125 1267.554688 741.492188 1267.261719 742.671875 1267.027344 C 743.851562 1266.792969 745.039062 1266.617188 746.234375 1266.5 C 747.433594 1266.382812 748.632812 1266.324219 749.832031 1266.324219 C 751.035156 1266.324219 752.234375 1266.382812 753.429688 1266.5 C 754.628906 1266.617188 755.816406 1266.792969 756.996094 1267.027344 C 758.171875 1267.261719 759.339844 1267.554688 760.488281 1267.902344 C 761.640625 1268.25 762.769531 1268.65625 763.878906 1269.117188 C 764.992188 1269.578125 766.078125 1270.089844 767.136719 1270.65625 C 768.195312 1271.222656 769.226562 1271.839844 770.226562 1272.507812 C 771.226562 1273.175781 772.191406 1273.890625 773.121094 1274.652344 C 774.046875 1275.417969 774.9375 1276.222656 775.789062 1277.074219 C 776.636719 1277.921875 777.445312 1278.8125 778.207031 1279.742188 C 778.96875 1280.671875 779.683594 1281.636719 780.351562 1282.636719 C 781.019531 1283.632812 781.636719 1284.664062 782.203125 1285.726562 C 782.769531 1286.785156 783.285156 1287.871094 783.746094 1288.980469 C 784.203125 1290.089844 784.609375 1291.222656 784.957031 1292.371094 C 785.308594 1293.523438 785.597656 1294.6875 785.832031 1295.867188 C 786.066406 1297.046875 786.246094 1298.234375 786.363281 1299.429688 C 786.480469 1300.625 786.539062 1301.824219 786.539062 1303.027344 Z M 786.539062 1303.027344 " fill-opacity="1" fill-rule="nonzero"/></svg>